<svg width="100" height="100" viewBox="0 0 100 100" fill="none" xmlns="http://www.w3.org/2000/svg">
<path d="M79.1667 45.8333C79.875 45.8333 80.5417 45.875 81.2083 45.9167L62.5 12.5H37.5L61.1667 53.5C65.7083 48.7917 72.0833 45.8333 79.1667 45.8333Z" fill="#005348"/>
<path d="M33.9582 18.8333L8.33325 64.5833L20.8333 87.5L47.2083 41.7916L33.9582 18.8333Z" fill="#005348"/>
<path d="M54.9998 64.5833H41.2498L28.0415 87.5H60.5832C56.5832 83.0833 54.1665 77.25 54.1665 70.8333C54.1665 68.6667 54.4582 66.5833 54.9998 64.5833Z" fill="#005348"/>
<path d="M83.3333 66.6667V54.1667H75V66.6667H62.5V75H75V87.5H79.1667H83.3333V75H95.8333V66.6667H83.3333Z" fill="#005348"/>
</svg>
