<svg width="92" height="101" viewBox="0 0 92 101" fill="none" xmlns="http://www.w3.org/2000/svg">
<path d="M10.4877 73.6875L15.5127 75.7875V41.925L6.40019 63.9C4.86269 67.725 6.70019 72.1125 10.4877 73.6875V73.6875ZM83.6127 59.8125L65.0127 14.925C63.8502 12.1125 61.1127 10.3875 58.2252 10.3125C57.2502 10.3125 56.2377 10.4625 55.2627 10.875L27.6252 22.3125C24.8127 23.475 23.0877 26.175 23.0127 29.0625C22.9752 30.075 23.1627 31.0875 23.5752 32.0625L42.1752 76.95C43.3377 79.8 46.1127 81.525 49.0377 81.5625C50.0127 81.5625 50.9877 81.375 51.9252 81L79.5252 69.5625C83.3502 67.9875 85.1877 63.6 83.6127 59.8125V59.8125ZM49.1127 74.0625L30.5127 29.2125L58.0752 17.8125H58.1127L76.6752 62.625L49.1127 74.0625V74.0625Z" fill="#27BAA6"/>
<path d="M42.25 37.5C44.3211 37.5 46 35.8211 46 33.75C46 31.6789 44.3211 30 42.25 30C40.1789 30 38.5 31.6789 38.5 33.75C38.5 35.8211 40.1789 37.5 42.25 37.5Z" fill="#27BAA6"/>
<path d="M23.0496 74.0625C23.0496 78.1875 26.4246 81.5625 30.5496 81.5625H35.9871L23.0496 50.2875V74.0625Z" fill="#27BAA6"/>
<path d="M5.47028 96L3.55028 92.664H2.50628V96H1.13828V87.66H4.01828C4.65828 87.66 5.19828 87.772 5.63828 87.996C6.08628 88.22 6.41828 88.52 6.63428 88.896C6.85828 89.272 6.97028 89.692 6.97028 90.156C6.97028 90.7 6.81028 91.196 6.49028 91.644C6.17828 92.084 5.69428 92.384 5.03828 92.544L7.10228 96H5.47028ZM2.50628 91.572H4.01828C4.53028 91.572 4.91428 91.444 5.17028 91.188C5.43428 90.932 5.56628 90.588 5.56628 90.156C5.56628 89.724 5.43828 89.388 5.18228 89.148C4.92628 88.9 4.53828 88.776 4.01828 88.776H2.50628V91.572ZM14.7803 92.532C14.7803 92.78 14.7643 93.004 14.7323 93.204H9.68031C9.72031 93.732 9.91631 94.156 10.2683 94.476C10.6203 94.796 11.0523 94.956 11.5643 94.956C12.3003 94.956 12.8203 94.648 13.1243 94.032H14.6003C14.4003 94.64 14.0363 95.14 13.5083 95.532C12.9883 95.916 12.3403 96.108 11.5643 96.108C10.9323 96.108 10.3643 95.968 9.86031 95.688C9.36431 95.4 8.97231 95 8.68431 94.488C8.40431 93.968 8.26431 93.368 8.26431 92.688C8.26431 92.008 8.40031 91.412 8.67231 90.9C8.95231 90.38 9.34031 89.98 9.83631 89.7C10.3403 89.42 10.9163 89.28 11.5643 89.28C12.1883 89.28 12.7443 89.416 13.2323 89.688C13.7203 89.96 14.1003 90.344 14.3723 90.84C14.6443 91.328 14.7803 91.892 14.7803 92.532ZM13.3523 92.1C13.3443 91.596 13.1643 91.192 12.8123 90.888C12.4603 90.584 12.0243 90.432 11.5043 90.432C11.0323 90.432 10.6283 90.584 10.2923 90.888C9.95631 91.184 9.75631 91.588 9.69231 92.1H13.3523ZM15.6706 92.688C15.6706 92.008 15.8066 91.412 16.0786 90.9C16.3586 90.38 16.7426 89.98 17.2306 89.7C17.7186 89.42 18.2786 89.28 18.9106 89.28C19.7106 89.28 20.3706 89.472 20.8906 89.856C21.4186 90.232 21.7746 90.772 21.9586 91.476H20.4826C20.3626 91.148 20.1706 90.892 19.9066 90.708C19.6426 90.524 19.3106 90.432 18.9106 90.432C18.3506 90.432 17.9026 90.632 17.5666 91.032C17.2386 91.424 17.0746 91.976 17.0746 92.688C17.0746 93.4 17.2386 93.956 17.5666 94.356C17.9026 94.756 18.3506 94.956 18.9106 94.956C19.7026 94.956 20.2266 94.608 20.4826 93.912H21.9586C21.7666 94.584 21.4066 95.12 20.8786 95.52C20.3506 95.912 19.6946 96.108 18.9106 96.108C18.2786 96.108 17.7186 95.968 17.2306 95.688C16.7426 95.4 16.3586 95 16.0786 94.488C15.8066 93.968 15.6706 93.368 15.6706 92.688ZM26.7419 89.28C27.2459 89.28 27.6939 89.388 28.0859 89.604C28.4859 89.82 28.7979 90.14 29.0219 90.564C29.2539 90.988 29.3699 91.5 29.3699 92.1V96H28.0139V92.304C28.0139 91.712 27.8659 91.26 27.5699 90.948C27.2739 90.628 26.8699 90.468 26.3579 90.468C25.8459 90.468 25.4379 90.628 25.1339 90.948C24.8379 91.26 24.6899 91.712 24.6899 92.304V96H23.3219V87.12H24.6899V90.156C24.9219 89.876 25.2139 89.66 25.5659 89.508C25.9259 89.356 26.3179 89.28 26.7419 89.28ZM30.6588 92.664C30.6588 92 30.7948 91.412 31.0668 90.9C31.3468 90.388 31.7228 89.992 32.1948 89.712C32.6748 89.424 33.2028 89.28 33.7788 89.28C34.2988 89.28 34.7508 89.384 35.1348 89.592C35.5268 89.792 35.8388 90.044 36.0708 90.348V89.388H37.4508V96H36.0708V95.016C35.8388 95.328 35.5228 95.588 35.1228 95.796C34.7228 96.004 34.2668 96.108 33.7548 96.108C33.1868 96.108 32.6668 95.964 32.1948 95.676C31.7228 95.38 31.3468 94.972 31.0668 94.452C30.7948 93.924 30.6588 93.328 30.6588 92.664ZM36.0708 92.688C36.0708 92.232 35.9748 91.836 35.7828 91.5C35.5988 91.164 35.3548 90.908 35.0508 90.732C34.7468 90.556 34.4188 90.468 34.0668 90.468C33.7148 90.468 33.3868 90.556 33.0828 90.732C32.7788 90.9 32.5308 91.152 32.3388 91.488C32.1548 91.816 32.0628 92.208 32.0628 92.664C32.0628 93.12 32.1548 93.52 32.3388 93.864C32.5308 94.208 32.7788 94.472 33.0828 94.656C33.3948 94.832 33.7228 94.92 34.0668 94.92C34.4188 94.92 34.7468 94.832 35.0508 94.656C35.3548 94.48 35.5988 94.224 35.7828 93.888C35.9748 93.544 36.0708 93.144 36.0708 92.688ZM40.6157 90.348C40.8157 90.012 41.0797 89.752 41.4077 89.568C41.7437 89.376 42.1397 89.28 42.5957 89.28V90.696H42.2477C41.7117 90.696 41.3037 90.832 41.0237 91.104C40.7517 91.376 40.6157 91.848 40.6157 92.52V96H39.2477V89.388H40.6157V90.348ZM46.5171 89.28C47.0291 89.28 47.4811 89.384 47.8731 89.592C48.2731 89.792 48.5851 90.044 48.8091 90.348V89.388H50.1891V96.108C50.1891 96.716 50.0611 97.256 49.8051 97.728C49.5491 98.208 49.1771 98.584 48.6891 98.856C48.2091 99.128 47.6331 99.264 46.9611 99.264C46.0651 99.264 45.3211 99.052 44.7291 98.628C44.1371 98.212 43.8011 97.644 43.7211 96.924H45.0771C45.1811 97.268 45.4011 97.544 45.7371 97.752C46.0811 97.968 46.4891 98.076 46.9611 98.076C47.5131 98.076 47.9571 97.908 48.2931 97.572C48.6371 97.236 48.8091 96.748 48.8091 96.108V95.004C48.5771 95.316 48.2611 95.58 47.8611 95.796C47.4691 96.004 47.0211 96.108 46.5171 96.108C45.9411 96.108 45.4131 95.964 44.9331 95.676C44.4611 95.38 44.0851 94.972 43.8051 94.452C43.5331 93.924 43.3971 93.328 43.3971 92.664C43.3971 92 43.5331 91.412 43.8051 90.9C44.0851 90.388 44.4611 89.992 44.9331 89.712C45.4131 89.424 45.9411 89.28 46.5171 89.28ZM48.8091 92.688C48.8091 92.232 48.7131 91.836 48.5211 91.5C48.3371 91.164 48.0931 90.908 47.7891 90.732C47.4851 90.556 47.1571 90.468 46.8051 90.468C46.4531 90.468 46.1251 90.556 45.8211 90.732C45.5171 90.9 45.2691 91.152 45.0771 91.488C44.8931 91.816 44.8011 92.208 44.8011 92.664C44.8011 93.12 44.8931 93.52 45.0771 93.864C45.2691 94.208 45.5171 94.472 45.8211 94.656C46.1331 94.832 46.4611 94.92 46.8051 94.92C47.1571 94.92 47.4851 94.832 47.7891 94.656C48.0931 94.48 48.3371 94.224 48.5211 93.888C48.7131 93.544 48.8091 93.144 48.8091 92.688ZM58.0459 92.532C58.0459 92.78 58.0299 93.004 57.9979 93.204H52.9459C52.9859 93.732 53.1819 94.156 53.5339 94.476C53.8859 94.796 54.3179 94.956 54.8299 94.956C55.5659 94.956 56.0859 94.648 56.3899 94.032H57.8659C57.6659 94.64 57.3019 95.14 56.7739 95.532C56.2539 95.916 55.6059 96.108 54.8299 96.108C54.1979 96.108 53.6299 95.968 53.1259 95.688C52.6299 95.4 52.2379 95 51.9499 94.488C51.6699 93.968 51.5299 93.368 51.5299 92.688C51.5299 92.008 51.6659 91.412 51.9379 90.9C52.2179 90.38 52.6059 89.98 53.1019 89.7C53.6059 89.42 54.1819 89.28 54.8299 89.28C55.4539 89.28 56.0099 89.416 56.4979 89.688C56.9859 89.96 57.3659 90.344 57.6379 90.84C57.9099 91.328 58.0459 91.892 58.0459 92.532ZM56.6179 92.1C56.6099 91.596 56.4299 91.192 56.0779 90.888C55.7259 90.584 55.2899 90.432 54.7699 90.432C54.2979 90.432 53.8939 90.584 53.5579 90.888C53.2219 91.184 53.0219 91.588 52.9579 92.1H56.6179ZM62.0534 91.812C62.0534 90.996 62.2414 90.264 62.6174 89.616C63.0014 88.968 63.5174 88.464 64.1654 88.104C64.8214 87.736 65.5374 87.552 66.3134 87.552C67.2014 87.552 67.9894 87.772 68.6774 88.212C69.3734 88.644 69.8774 89.26 70.1894 90.06H68.5454C68.3294 89.62 68.0294 89.292 67.6454 89.076C67.2614 88.86 66.8174 88.752 66.3134 88.752C65.7614 88.752 65.2694 88.876 64.8374 89.124C64.4054 89.372 64.0654 89.728 63.8174 90.192C63.5774 90.656 63.4574 91.196 63.4574 91.812C63.4574 92.428 63.5774 92.968 63.8174 93.432C64.0654 93.896 64.4054 94.256 64.8374 94.512C65.2694 94.76 65.7614 94.884 66.3134 94.884C66.8174 94.884 67.2614 94.776 67.6454 94.56C68.0294 94.344 68.3294 94.016 68.5454 93.576H70.1894C69.8774 94.376 69.3734 94.992 68.6774 95.424C67.9894 95.856 67.2014 96.072 66.3134 96.072C65.5294 96.072 64.8134 95.892 64.1654 95.532C63.5174 95.164 63.0014 94.656 62.6174 94.008C62.2414 93.36 62.0534 92.628 62.0534 91.812ZM71.3346 92.664C71.3346 92 71.4706 91.412 71.7426 90.9C72.0226 90.388 72.3986 89.992 72.8706 89.712C73.3506 89.424 73.8786 89.28 74.4546 89.28C74.9746 89.28 75.4266 89.384 75.8106 89.592C76.2026 89.792 76.5146 90.044 76.7466 90.348V89.388H78.1266V96H76.7466V95.016C76.5146 95.328 76.1986 95.588 75.7986 95.796C75.3986 96.004 74.9426 96.108 74.4306 96.108C73.8626 96.108 73.3426 95.964 72.8706 95.676C72.3986 95.38 72.0226 94.972 71.7426 94.452C71.4706 93.924 71.3346 93.328 71.3346 92.664ZM76.7466 92.688C76.7466 92.232 76.6506 91.836 76.4586 91.5C76.2746 91.164 76.0306 90.908 75.7266 90.732C75.4226 90.556 75.0946 90.468 74.7426 90.468C74.3906 90.468 74.0626 90.556 73.7586 90.732C73.4546 90.9 73.2066 91.152 73.0146 91.488C72.8306 91.816 72.7386 92.208 72.7386 92.664C72.7386 93.12 72.8306 93.52 73.0146 93.864C73.2066 94.208 73.4546 94.472 73.7586 94.656C74.0706 94.832 74.3986 94.92 74.7426 94.92C75.0946 94.92 75.4226 94.832 75.7266 94.656C76.0306 94.48 76.2746 94.224 76.4586 93.888C76.6506 93.544 76.7466 93.144 76.7466 92.688ZM81.2914 90.348C81.4914 90.012 81.7554 89.752 82.0834 89.568C82.4194 89.376 82.8154 89.28 83.2714 89.28V90.696H82.9234C82.3874 90.696 81.9794 90.832 81.6994 91.104C81.4274 91.376 81.2914 91.848 81.2914 92.52V96H79.9234V89.388H81.2914V90.348ZM84.0729 92.664C84.0729 92 84.2089 91.412 84.4809 90.9C84.7609 90.388 85.1369 89.992 85.6089 89.712C86.0889 89.424 86.6209 89.28 87.2049 89.28C87.6369 89.28 88.0609 89.376 88.4769 89.568C88.9009 89.752 89.2369 90 89.4849 90.312V87.12H90.8649V96H89.4849V95.004C89.2609 95.324 88.9489 95.588 88.5489 95.796C88.1569 96.004 87.7049 96.108 87.1929 96.108C86.6169 96.108 86.0889 95.964 85.6089 95.676C85.1369 95.38 84.7609 94.972 84.4809 94.452C84.2089 93.924 84.0729 93.328 84.0729 92.664ZM89.4849 92.688C89.4849 92.232 89.3889 91.836 89.1969 91.5C89.0129 91.164 88.7689 90.908 88.4649 90.732C88.1609 90.556 87.8329 90.468 87.4809 90.468C87.1289 90.468 86.8009 90.556 86.4969 90.732C86.1929 90.9 85.9449 91.152 85.7529 91.488C85.5689 91.816 85.4769 92.208 85.4769 92.664C85.4769 93.12 85.5689 93.52 85.7529 93.864C85.9449 94.208 86.1929 94.472 86.4969 94.656C86.8089 94.832 87.1369 94.92 87.4809 94.92C87.8329 94.92 88.1609 94.832 88.4649 94.656C88.7689 94.48 89.0129 94.224 89.1969 93.888C89.3889 93.544 89.4849 93.144 89.4849 92.688Z" fill="black"/>
</svg>
